<svg width="153" height="207" viewBox="0 0 153 207" fill="none" xmlns="http://www.w3.org/2000/svg">
<rect width="153" height="207" rx="12" fill="#141414"/>
<path d="M30.3506 96.9556H37.3223L41.5053 144.921L30.3506 124.842V96.9556Z" fill="white"/>
<path d="M68.4153 55.5561L76.2236 43.0071L84.032 55.5561L85.4263 81.4909L88.0755 95.2948H63.5352L66.3238 80.9331L68.4153 55.5561Z" fill="white"/>
<path d="M75.8067 123.184L87.882 95.1579H63.7313L75.8067 123.184Z" fill="white"/>
<path d="M68.8614 115.557L50.3585 109.957L41.284 107.584L34.2001 102.838L63.7076 95.2953L68.8614 115.557Z" fill="white"/>
<path d="M82.929 115.548L101.517 109.72L110.629 107.239L117.768 102.375L88.2695 94.9984L82.929 115.548Z" fill="white"/>
<path d="M65.7653 172.948L41.0855 144.364L62.9767 136.138L65.7653 172.948Z" fill="white"/>
<path d="M34.2549 102.807L41.1804 144.513L62.9454 136.644L34.2549 102.807Z" fill="white"/>
<path d="M120.888 96.9556H113.916L109.733 144.921L120.888 124.842V96.9556Z" fill="white"/>
<path d="M85.47 172.948L110.15 144.364L88.2587 136.138L85.47 172.948Z" fill="white"/>
<path d="M116.982 102.807L110.057 144.513L88.2919 136.644L116.982 102.807Z" fill="white"/>
<path d="M65.9074 95.44L34.117 102.829L68.5567 55.283L65.9074 95.44Z" fill="white"/>
<path d="M86.0545 95.44L117.845 102.829L83.4052 55.283L86.0545 95.44Z" fill="white"/>
<path d="M119.449 88.4626L110.804 70.4756L99.7888 58.4843L75.8062 43.0071L73.8541 45.3775L116.103 102.685L120.564 96.968L119.449 88.4626Z" fill="white"/>
<path d="M31.7444 88.4626L40.3893 70.4756L51.4046 58.4843L75.3872 43.0071L77.3393 45.3775L35.0908 102.685L30.6289 96.968L31.7444 88.4626Z" fill="white"/>
</svg>
